# xmcd
#
# Track frame offsets: 
#        150
#        18690
#        42755
#        60796
#        76583
#        89622
#        109783
#        129114
#        144710
#        167185
#        182403
#        201759
#        221744
#        238519
#        253946
#        275065
#        297477
#        321299
#        333633
#
# Disc length: 4648 seconds
#
# Revision: 1
# Processed by: cddbd v1.5.2PL0 Copyright (c) Steve Scherf et al.
# Submitted via: ExactAudioCopy v0.99pb3
#
DISCID=1b122613
DTITLE=Quimby - Family Tugedör
DYEAR=2006
DGENRE=Alt. Rock
TTITLE0=Hintalógalopp
TTITLE1=Viszockij visszhangja
TTITLE2=Homo defektus
TTITLE3=As Perfect Strangers
TTITLE4=Hoppá
TTITLE5=Country Joe McDonald
TTITLE6=Szellõ
TTITLE7=Eugene's Cool Blues
TTITLE8=Fekete Lamoure
TTITLE9=Autó egy szerpentinen
TTITLE10=Legyen vörös
TTITLE11=Mennybõl az angyal
TTITLE12=Kaviár és bor
TTITLE13=Sehol se talállak
TTITLE14=Halleluja
TTITLE15=Unom
TTITLE16=Libidó
TTITLE17=Crazy Train
TTITLE18=Don Quijote ébredése
EXTD=
EXTT0=
EXTT1=
EXTT2=
EXTT3=
EXTT4=
EXTT5=
EXTT6=
EXTT7=
EXTT8=
EXTT9=
EXTT10=
EXTT11=
EXTT12=
EXTT13=
EXTT14=
EXTT15=
EXTT16=
EXTT17=
EXTT18=
PLAYORDER=
